# xmcd
#
# Track frame offsets:
#	150
#	21257
#	45025
#	63242
#	77672
#	103797
#	119872
#	133215
#	155185
#	174982
#	188140
#	199725
#	218067
#	238687
#	256227
#	275830
#
# Disc length: 3862 seconds
#
# Revision: 0
# Processed by: cddbd v1.4PL0 Copyright (c) Steve Scherf et al.
# Submitted via: dBpowerAMP V4.0
#
DISCID=e90f1410
DTITLE=Jimmy LaFave - Texoma
DYEAR=2000
DGENRE=Country
TTITLE0=Bad Bad Girl
TTITLE1=Never Is A Moment
TTITLE2=This Glorious Day
TTITLE3=Poor Man's Dream
TTITLE4=On A Bus To St. Cloud
TTITLE5=Rock And Roll Music To The World
TTITLE6=Red Dirt Song
TTITLE7=Woody Guthrie
TTITLE8=Tears
TTITLE9=Love Can Find Its Own Way
TTITLE10=Elvis Loved His Mama
TTITLE11=Emotionaly Yours
TTITLE12=Patient Man
TTITLE13=On The Road To Rock And Roll
TTITLE14=The Moon's A Harsh Mistress
TTITLE15=San Francisco
EXTD=
EXTT0=
EXTT1=
EXTT2=
EXTT3=
EXTT4=
EXTT5=
EXTT6=
EXTT7=
EXTT8=
EXTT9=
EXTT10=
EXTT11=
EXTT12=
EXTT13=
EXTT14=
EXTT15=
PLAYORDER=
